<svg width="46" height="35" viewBox="0 0 46 35" fill="none" xmlns="http://www.w3.org/2000/svg">
<path d="M0.318359 26.125V24.9716H1.21558C2.57056 24.9716 3.40062 24.8616 3.70581 24.6419C4.02319 24.41 4.18188 23.9278 4.18188 23.1953V3.43823C4.18188 2.71804 4.02319 2.24808 3.70581 2.02833C3.38844 1.79639 2.55834 1.68042 1.21558 1.68042H0.318359V0.508545H14.033C17.2312 0.508545 19.9412 1.7842 22.1628 4.33533C24.3967 6.88689 25.5137 9.95064 25.5137 13.5275C25.5137 17.0306 24.3906 20.0094 22.1445 22.4628C19.9107 24.9044 17.2068 26.125 14.033 26.125H0.318359ZM7.40453 23.47C7.40453 24.1169 7.49609 24.5319 7.67919 24.715C7.86231 24.886 8.38109 24.9716 9.23559 24.9716H13.0259C14.6738 24.9716 16.0532 24.6356 17.1641 23.9644C18.2749 23.2806 19.1172 22.5485 19.6909 21.7672C21.0703 19.8872 21.76 17.1406 21.76 13.5275C21.76 9.73095 21.113 6.94158 19.8191 5.15939C18.1467 2.84011 15.8701 1.68042 12.9893 1.68042H9.23559C8.38109 1.68042 7.86231 1.76589 7.67919 1.9368C7.49609 2.10767 7.40453 2.52273 7.40453 3.18189V23.47Z" fill="white"/>
<path d="M25.2451 32.375V31.2215H26.1423C27.4973 31.2215 28.3274 31.1115 28.6326 30.8919C28.9499 30.66 29.1087 30.1778 29.1087 29.4453V9.68811C29.1087 8.96811 28.9499 8.49811 28.6326 8.27842C28.3152 8.04623 27.4851 7.9303 26.1423 7.9303H25.2451V6.75842C26.124 6.83186 28.0222 6.86842 30.9397 6.86842C34.2356 6.86842 36.3353 6.83186 37.2384 6.75842V7.9303H35.9934C34.8459 7.9303 34.0097 8.00374 33.485 8.14999C32.96 8.29655 32.6547 8.47374 32.5694 8.68124C32.4837 8.87655 32.4412 9.22436 32.4412 9.72498V29.72C32.4412 30.3669 32.5328 30.7819 32.7159 30.965C32.9112 31.1359 33.43 31.2215 34.2722 31.2215H37.3484C38.6178 31.2215 39.7103 31.0322 40.6259 30.6537C41.5416 30.2753 42.2434 29.8481 42.7316 29.3722C43.22 28.8959 43.6228 28.2125 43.9403 27.3212C44.2697 26.4181 44.4834 25.6794 44.5809 25.1056C44.6909 24.5319 44.7947 23.7325 44.8922 22.7069H45.8262L44.7825 32.375H25.2451Z" fill="white"/>
<path d="M33.1328 20.8275C33.4641 20.8275 33.7291 21.0928 33.7291 21.424C33.7291 21.5897 33.6628 21.7553 33.5303 21.8712C30.3494 24.5719 26.0585 27.4544 21.7841 29.7409L20.6907 30.304C23.1261 31.8781 26.5555 32.7725 30.3328 32.7725C30.6641 32.7725 30.9294 33.0378 30.9294 33.369C30.9294 33.7003 30.6641 33.9653 30.3328 33.9653C26.0253 33.9653 22.1486 32.8719 19.4647 30.9172C15.0578 33.0378 11.1479 34.1809 8.36466 34.1809C6.31032 34.1809 5.16716 33.3028 5.16716 31.6956C5.16716 28.5812 10.1042 24.9362 15.4223 21.5565C15.8033 18.4087 17.808 15.1284 20.8232 12.7594C23.1095 10.97 25.7106 9.95935 28.0797 9.95935C29.4879 9.95935 30.3163 10.6884 30.3163 11.9144C30.3163 13.4719 28.3282 15.0622 20.4422 19.8665C19.1665 20.6453 17.8577 21.4406 16.582 22.2359C16.5654 22.3519 16.5654 22.4678 16.5654 22.5837C16.5654 25.2178 17.3938 27.3384 19.0671 29.0119C19.2328 29.1775 19.415 29.3431 19.6138 29.5087C20.144 29.2603 20.6741 28.9787 21.2374 28.6806C25.4124 26.4606 29.637 23.6109 32.7516 20.96C32.8509 20.8772 33.0003 20.8275 33.1328 20.8275ZM21.5522 13.7037C19.1168 15.609 17.4104 18.1603 16.7974 20.695C17.808 20.0656 18.8186 19.4525 19.8126 18.8397C26.7543 14.615 29.1234 12.8422 29.1234 11.9144C29.1234 11.3844 28.8418 11.1522 28.0797 11.1522C25.9591 11.1522 23.6562 12.0634 21.5522 13.7037ZM6.36 31.6956C6.36 32.5903 6.95644 32.9881 8.36466 32.9881C10.8498 32.9881 14.3951 31.9609 18.4541 30.0722C18.3713 30.0059 18.2884 29.9231 18.2222 29.8569C16.4329 28.0675 15.472 25.7315 15.3726 22.9978C9.14332 26.974 6.36 29.6747 6.36 31.6956Z" fill="#F6D1C9"/>
</svg>
