<svg width="276" height="276" viewBox="0 0 276 276" fill="none" xmlns="http://www.w3.org/2000/svg">
<path d="M14.1574 124.912V120.871H17.3032C22.0532 120.871 24.9699 120.475 26.0532 119.683C27.147 118.891 27.6991 117.219 27.6991 114.662V45.5163C27.6991 42.9903 27.1418 41.3288 26.0324 40.5372C24.9178 39.7455 22.0116 39.3497 17.3032 39.3497H14.1574V35.2455H62.1782C73.3553 35.2455 82.8449 39.7143 90.6366 48.6413C98.4387 57.5736 102.345 68.3028 102.345 80.8288C102.345 93.0788 98.4178 103.49 90.5741 112.058C82.7407 120.631 73.272 124.912 62.1782 124.912H14.1574ZM38.9699 115.621C38.9699 117.886 39.2876 119.329 39.9282 119.954C40.5637 120.568 42.3866 120.871 45.3866 120.871H58.6366C64.4126 120.871 69.2407 119.693 73.1157 117.329C77.0012 114.954 79.9543 112.402 81.9699 109.662C86.8032 103.079 89.2199 93.4695 89.2199 80.8288C89.2199 67.5372 86.9543 57.7768 82.4282 51.5372C76.5637 43.4122 68.5949 39.3497 58.5116 39.3497H45.3866C42.3866 39.3497 40.5637 39.6518 39.9282 40.2455C39.2876 40.8445 38.9699 42.3028 38.9699 44.6205V115.621Z" fill="black"/>
<path d="M110.467 171.041C117.623 171.041 127.68 167.947 139.092 162.53C145.858 167.561 155.915 170.462 166.941 170.462C167.717 170.462 168.102 169.879 168.102 169.301C168.102 168.718 167.717 168.139 166.941 168.139C156.884 168.139 147.602 165.817 141.217 161.369L144.894 159.629C155.722 153.827 166.748 146.285 175.066 139.322C175.259 139.129 175.451 138.936 175.451 138.546C175.451 137.968 174.873 137.389 174.29 137.389C173.904 137.389 173.712 137.582 173.519 137.775C165.587 144.546 154.561 151.895 143.733 157.697C142.186 158.468 140.832 159.244 139.285 160.014L137.738 158.468C133.29 154.02 131.16 148.41 131.16 141.447C131.16 141.061 131.16 140.676 131.16 140.483L141.217 134.098C160.753 122.301 166.555 117.853 166.555 113.983C166.555 111.082 164.618 109.343 161.139 109.343C155.144 109.343 148.566 112.051 142.764 116.499C135.029 122.686 129.805 131.197 129.035 139.129C115.3 147.832 102.535 157.113 102.535 165.046C102.535 168.91 105.436 171.041 110.467 171.041ZM131.545 137.582C132.707 130.619 137.347 123.655 144.118 118.238C149.535 113.983 155.722 111.666 161.139 111.666C163.462 111.666 164.425 112.436 164.425 113.983C164.425 116.499 158.816 120.947 140.055 132.166C137.347 133.905 134.446 135.837 131.545 137.582ZM110.467 168.718C106.597 168.718 104.858 167.561 104.858 165.046C104.858 158.468 115.878 149.957 128.837 141.837C129.035 149.186 131.352 155.374 136.191 160.014C136.384 160.405 136.769 160.598 137.154 160.983C126.519 166.009 117.04 168.718 110.467 168.718Z" fill="black"/>
<path d="M187.708 246.039V241.997H190.854C195.588 241.997 198.499 241.602 199.583 240.81C200.677 240.018 201.229 238.346 201.229 235.789V166.643C201.229 164.117 200.671 162.456 199.562 161.664C198.447 160.872 195.546 160.477 190.854 160.477H187.708V156.372C190.791 156.638 197.437 156.768 207.645 156.768C219.171 156.768 226.52 156.638 229.687 156.372V160.477H225.333C221.317 160.477 218.385 160.737 216.541 161.247C214.708 161.763 213.635 162.372 213.333 163.081C213.041 163.789 212.895 165.018 212.895 166.768V236.747C212.895 239.013 213.218 240.456 213.874 241.081C214.541 241.695 216.354 241.997 219.312 241.997H230.083C234.51 241.997 238.333 241.341 241.541 240.018C244.749 238.685 247.208 237.195 248.916 235.539C250.624 233.872 252.041 231.471 253.166 228.331C254.302 225.18 255.052 222.602 255.416 220.602C255.775 218.591 256.13 215.789 256.479 212.206H259.749L256.083 246.039H187.708Z" fill="black"/>
<mask id="mask0_140_4" style="mask-type:luminance" maskUnits="userSpaceOnUse" x="96" y="0" width="180" height="131">
<path d="M96 0H276V130.667H96V0Z" fill="white"/>
</mask>
<g mask="url(#mask0_140_4)">
<mask id="mask1_140_4" style="mask-type:luminance" maskUnits="userSpaceOnUse" x="96" y="-37" width="210" height="168">
<path d="M274.891 130.776L96.8386 6.73437L127.135 -36.7552L305.188 87.2865L274.891 130.776Z" fill="white"/>
</mask>
<g mask="url(#mask1_140_4)">
<mask id="mask2_140_4" style="mask-type:luminance" maskUnits="userSpaceOnUse" x="96" y="-37" width="210" height="168">
<path d="M274.891 130.776L96.8386 6.73437L127.135 -36.7552L305.188 87.2865L274.891 130.776Z" fill="white"/>
</mask>
<g mask="url(#mask2_140_4)">
<path d="M215.615 25.6771C219.88 28.6511 223.969 31.849 227.88 35.2813C231.786 38.7136 235.495 42.349 238.995 46.1927C242.5 50.0365 245.776 54.0677 248.828 58.2813C251.875 62.4896 254.682 66.8594 257.245 71.3854C259.807 75.9115 262.109 80.5677 264.151 85.349C266.193 90.1302 267.958 95.0156 269.453 99.9948C270.948 104.979 272.161 110.026 273.089 115.146C274.016 120.26 274.656 125.417 275.01 130.604L275.438 129.99C275.078 125.146 274.469 120.328 273.615 115.542C272.042 106.656 269.625 98.0052 266.37 89.5834C263.115 81.1667 259.073 73.1459 254.255 65.5104C249.271 57.5938 243.547 50.25 237.078 43.4896C230.615 36.724 223.536 30.6771 215.849 25.3438C208.182 19.9844 200.057 15.4427 191.479 11.724C182.896 8.00001 174.031 5.1771 164.875 3.24481C156.047 1.3698 147.12 0.364597 138.099 0.223971C129.073 0.088554 120.12 0.817721 111.24 2.42189C106.484 3.29689 101.786 4.41668 97.1511 5.78647L96.724 6.40106C101.708 4.93231 106.76 3.75001 111.875 2.84897C116.99 1.94793 122.141 1.33335 127.328 1.01043C132.51 0.682306 137.698 0.645847 142.885 0.901055C148.073 1.15626 153.234 1.69793 158.359 2.53126C163.49 3.3646 168.552 4.47918 173.557 5.87501C178.557 7.27605 183.469 8.94793 188.286 10.8906C193.099 12.8386 197.792 15.0521 202.365 17.5208C206.932 19.9948 211.349 22.7136 215.615 25.6771Z" fill="black"/>
</g>
</g>
</g>
<mask id="mask3_140_4" style="mask-type:luminance" maskUnits="userSpaceOnUse" x="0" y="140" width="176" height="136">
<path d="M0 140H176V276H0V140Z" fill="white"/>
</mask>
<g mask="url(#mask3_140_4)">
<mask id="mask4_140_4" style="mask-type:luminance" maskUnits="userSpaceOnUse" x="-31" y="140" width="207" height="173">
<path d="M1.30208 140.693L175.411 270.214L143.776 312.74L-30.3281 183.219L1.30208 140.693Z" fill="white"/>
</mask>
<g mask="url(#mask4_140_4)">
<mask id="mask5_140_4" style="mask-type:luminance" maskUnits="userSpaceOnUse" x="-31" y="140" width="207" height="173">
<path d="M1.30208 140.693L175.411 270.214L143.776 312.74L-30.3281 183.219L1.30208 140.693Z" fill="white"/>
</mask>
<g mask="url(#mask5_140_4)">
<path d="M57.2812 247.583C53.1094 244.479 49.125 241.156 45.3229 237.604C41.5208 234.052 37.9323 230.302 34.5521 226.349C31.1719 222.401 28.0208 218.271 25.099 213.969C22.1823 209.661 19.5156 205.208 17.0938 200.604C14.6719 196 12.5156 191.276 10.625 186.432C8.73438 181.589 7.11979 176.651 5.78125 171.625C4.44271 166.604 3.39062 161.516 2.61979 156.375C1.84896 151.229 1.36979 146.063 1.17708 140.865L0.734375 141.464C0.942708 146.318 1.40104 151.151 2.10417 155.958C3.40104 164.891 5.54688 173.615 8.54167 182.13C11.5313 190.646 15.3177 198.792 19.901 206.568C24.6354 214.635 30.1302 222.156 36.3802 229.115C42.6354 236.078 49.5208 242.344 57.0365 247.911C64.5313 253.51 72.5104 258.302 80.974 262.286C89.4375 266.271 98.2083 269.37 107.297 271.583C116.063 273.734 124.953 275.016 133.969 275.438C142.984 275.859 151.958 275.401 160.885 274.078C165.661 273.349 170.391 272.375 175.068 271.151L175.516 270.552C170.484 271.859 165.401 272.885 160.26 273.63C155.12 274.37 149.953 274.823 144.76 274.99C139.568 275.151 134.385 275.026 129.203 274.609C124.026 274.193 118.891 273.49 113.786 272.5C108.688 271.51 103.661 270.24 98.7031 268.688C93.7448 267.135 88.8906 265.307 84.1406 263.214C79.3854 261.115 74.7656 258.76 70.276 256.151C65.7865 253.536 61.4531 250.682 57.2812 247.583Z" fill="black"/>
</g>
</g>
</g>
<path d="M125.61 23.7805L125.673 23.1138L126.194 23.1555C126.954 23.2284 127.428 23.2128 127.61 23.1138C127.788 23.0044 127.902 22.7388 127.944 22.3221L128.944 11.1138C128.985 10.7284 128.923 10.4576 128.756 10.3013C128.59 10.1503 128.121 10.0409 127.36 9.96798L126.84 9.92631L126.902 9.25964L134.673 9.96798C136.491 10.1242 137.965 10.9784 139.09 12.5305C140.225 14.0878 140.704 15.8794 140.527 17.9055C140.345 19.8951 139.558 21.5253 138.173 22.8013C136.782 24.0774 135.183 24.6399 133.381 24.4888L125.61 23.7805ZM129.756 22.6138C129.725 22.9888 129.761 23.2336 129.86 23.343C129.954 23.4576 130.246 23.5305 130.735 23.5721L132.86 23.7596C133.803 23.843 134.61 23.7232 135.277 23.4055C135.944 23.0721 136.454 22.6971 136.819 22.2805C137.694 21.2961 138.225 19.7753 138.423 17.718C138.6 15.5669 138.371 13.9576 137.735 12.8846C136.886 11.4836 135.642 10.7128 134.006 10.5721L131.902 10.3846C131.413 10.343 131.116 10.3638 131.006 10.4471C130.892 10.5305 130.824 10.7544 130.798 11.1138L129.756 22.6138Z" fill="black"/>
<path d="M145.787 26.0183L145.953 25.3724C147.172 25.6537 148.063 25.3829 148.62 24.5599L155.953 13.2266C156.047 13.0756 156.13 12.987 156.203 12.9558C156.287 12.9141 156.401 12.9089 156.558 12.9349C156.641 12.9662 156.703 12.9922 156.745 13.0183C156.797 13.0495 156.834 13.0912 156.849 13.1433C156.875 13.2006 156.891 13.2422 156.891 13.2683C156.901 13.2995 156.917 13.3672 156.933 13.4766L158.224 27.5183C158.224 27.8933 158.318 28.1537 158.516 28.3099C158.724 28.4766 159.141 28.6329 159.766 28.7891L160.12 28.8724L159.953 29.5183C159.104 29.2683 158.209 29.0235 157.266 28.7891C155.792 28.4245 154.797 28.2058 154.287 28.1224L154.453 27.4766C155.589 27.7526 156.209 27.6849 156.308 27.2683C156.318 27.237 156.328 27.1433 156.328 26.9766L156.016 23.5391L150.891 22.2683L149.266 24.7266C149.224 24.7839 149.183 24.8881 149.141 25.0391C149.068 25.3308 149.146 25.612 149.37 25.8724C149.589 26.1485 149.953 26.3516 150.453 26.4766L150.287 27.1224C148.964 26.7579 148.172 26.5443 147.912 26.4766C147.464 26.362 146.755 26.211 145.787 26.0183ZM151.287 21.6849L155.933 22.8516L155.287 15.5391L151.287 21.6849Z" fill="black"/>
<path d="M165.204 31.2569L165.454 30.6319C165.939 30.8298 166.35 30.9444 166.684 30.9861C167.027 31.0278 167.293 30.9861 167.475 30.8611C167.652 30.7257 167.777 30.6059 167.85 30.5069C167.934 30.3976 168.022 30.2361 168.121 30.0278L172.392 19.7569C172.475 19.5798 172.501 19.4548 172.475 19.3819C172.444 19.3142 172.319 19.2153 172.1 19.0903C171.725 18.8976 171.402 18.7517 171.142 18.6528L170.559 18.4028L170.809 17.7986L174.163 19.1944C174.355 19.2778 174.475 19.3507 174.517 19.4028C174.559 19.4444 174.6 19.5486 174.642 19.7153L177.329 32.8194L180.829 24.4236C180.913 24.2153 180.96 24.0486 180.975 23.9236C181.001 23.7882 180.996 23.6059 180.954 23.3819C180.923 23.1632 180.777 22.9392 180.517 22.7153C180.251 22.4965 179.881 22.2882 179.413 22.0903L179.663 21.4861C181.022 22.1007 181.777 22.4392 181.934 22.5069C182.1 22.5798 182.871 22.8767 184.246 23.4028L183.996 24.0069C183.522 23.8142 183.121 23.7048 182.788 23.6736C182.454 23.6319 182.189 23.684 181.996 23.8194C181.814 23.9444 181.689 24.0694 181.621 24.1944C181.548 24.309 181.475 24.4601 181.392 24.6528L176.85 35.5069C176.767 35.7257 176.694 35.8611 176.642 35.9028C176.585 35.9548 176.496 35.9548 176.371 35.9028C176.272 35.8715 176.189 35.7361 176.121 35.4861L173.017 20.3403C173.001 20.2465 172.965 20.1423 172.913 20.0278L168.663 30.2569C168.564 30.4653 168.501 30.6319 168.475 30.7569C168.46 30.8819 168.475 31.0538 168.517 31.2778C168.559 31.5121 168.71 31.7361 168.975 31.9444C169.236 32.1528 169.605 32.3507 170.079 32.5486L169.829 33.1736C168.454 32.559 167.689 32.2205 167.538 32.1528C167.381 32.0955 166.605 31.7986 165.204 31.2569Z" fill="black"/>
<path d="M183.556 39.5418L183.889 38.9584L184.389 39.2501C185.066 39.6355 185.52 39.823 185.743 39.8126C185.978 39.797 186.202 39.6043 186.41 39.2293L191.973 29.4584C192.165 29.1147 192.207 28.8334 192.098 28.6251C191.999 28.4168 191.608 28.1199 190.931 27.7293L190.431 27.4376L190.764 26.8751C191.181 27.1563 192.124 27.7084 193.598 28.5418C195.04 29.3647 195.978 29.8855 196.41 30.1043L196.077 30.6668L195.618 30.3959C194.91 29.9949 194.441 29.8074 194.223 29.8334C194.014 29.8647 193.811 30.0522 193.618 30.3959L188.056 40.1668C187.848 40.5261 187.785 40.8022 187.868 41.0001C187.962 41.2084 188.368 41.5105 189.077 41.9168L189.535 42.1876L189.202 42.7709C188.785 42.4793 187.853 41.922 186.41 41.1043C184.952 40.2709 183.999 39.7501 183.556 39.5418Z" fill="black"/>
<path d="M205.286 50.4479C205.646 50.0625 206.021 49.8125 206.411 49.6979C206.812 49.5886 207.416 49.5 208.224 49.4271L211.078 49.1771C211.62 47.6927 212.359 46.4219 213.307 45.3646C214.015 44.5729 214.791 44.1511 215.64 44.0938C216.484 44.0417 217.182 44.2552 217.724 44.7396C218 44.9792 218.172 45.2604 218.245 45.5938C218.312 45.9167 218.291 46.2292 218.182 46.5313C218.083 46.8229 217.958 47.0938 217.807 47.3438C217.651 47.5938 217.479 47.8333 217.286 48.0521C217.005 48.375 216.562 48.6354 215.953 48.8438C215.338 49.0417 214.807 49.1771 214.349 49.2604C213.89 49.3438 213.271 49.4375 212.495 49.5313C212.088 50.5625 211.797 51.7604 211.62 53.1354C211.437 54.5208 211.349 55.5208 211.349 56.1354C212.765 55.8854 214.547 55.4063 216.703 54.6979C216.937 54.5417 217.062 54.4583 217.078 54.4479C217.255 54.25 217.307 53.9948 217.224 53.6771C217.151 53.3698 216.937 53.0521 216.578 52.7188L217.036 52.2188C217.422 52.6458 218.057 53.25 218.932 54.0313C219.375 54.4167 219.901 54.8542 220.515 55.3438L220.057 55.8438C219.708 55.5365 219.39 55.3073 219.099 55.1563C218.818 55.0156 218.505 54.9479 218.161 54.9479C217.828 54.9583 217.547 54.9948 217.328 55.0521C217.104 55.1042 216.734 55.2083 216.224 55.3646C213.958 56.099 212.318 56.5365 211.307 56.6771C211.265 58.3281 211.568 59.4479 212.224 60.0313C212.64 60.4167 213.172 60.625 213.828 60.6563C214.479 60.6823 215.078 60.4167 215.62 59.8646L216.015 60.2188C215.401 60.8698 214.687 61.2188 213.87 61.2604C213.062 61.3021 212.349 61.0417 211.724 60.4896C210.776 59.6406 210.208 58.3958 210.015 56.7604C208.39 56.7708 207.068 56.3281 206.057 55.4271C205.25 54.7031 204.771 53.8646 204.62 52.9063C204.463 51.9479 204.687 51.1302 205.286 50.4479ZM207.057 51.1146C206.75 51.4479 206.495 51.8229 206.286 52.2396C206.088 52.6667 205.995 53.1458 205.995 53.6771C206.005 54.2188 206.213 54.6667 206.62 55.0313C207.479 55.8073 208.599 56.1979 209.974 56.1979C209.932 55.4063 210 54.349 210.182 53.0313C210.318 51.9063 210.557 50.7917 210.89 49.6771C209.932 49.7188 209.182 49.8229 208.64 49.9896C208.109 50.1458 207.583 50.5208 207.057 51.1146ZM214.62 45.9271C213.87 46.7761 213.224 47.8125 212.682 49.0313C214.89 48.8125 216.297 48.3594 216.911 47.6771C216.953 47.625 217.005 47.5521 217.078 47.4688C217.146 47.375 217.25 47.2188 217.39 47.0104C217.541 46.7917 217.646 46.5833 217.703 46.3854C217.771 46.1927 217.791 45.9792 217.765 45.7396C217.75 45.4896 217.651 45.2813 217.474 45.1146C217.151 44.8386 216.734 44.75 216.224 44.8438C215.708 44.9427 215.172 45.3021 214.62 45.9271Z" fill="black"/>
<path d="M225.823 75.3702L226.365 74.9952L226.677 75.4118C227.104 76.0368 227.427 76.3806 227.636 76.4535C227.844 76.5368 228.12 76.4587 228.469 76.2243L237.677 69.7868C238.011 69.5681 238.177 69.3441 238.177 69.1202C238.188 68.8858 237.979 68.4535 237.552 67.8285L237.24 67.4118L237.782 67.0368C238.042 67.4535 238.657 68.3493 239.615 69.7243C240.683 71.266 241.375 72.24 241.698 72.641L241.157 73.016L240.761 72.4327C240.386 71.891 240.073 71.5264 239.823 71.3285C239.584 71.1358 239.407 71.0525 239.282 71.0785C239.157 71.0941 238.979 71.1827 238.761 71.3493L229.427 77.8493C229.12 78.0681 228.953 78.2504 228.927 78.391C228.912 78.5421 229.042 78.8129 229.323 79.2035L230.323 80.641C230.74 81.2348 231.183 81.6879 231.657 81.9952C232.125 82.2973 232.552 82.4848 232.927 82.5577C233.313 82.6254 233.766 82.5889 234.282 82.4535C234.808 82.3129 235.219 82.1723 235.511 82.0368C235.813 81.8962 236.229 81.6827 236.761 81.391L237.052 81.8285L232.198 84.4952L225.823 75.3702Z" fill="black"/>
<path d="M235.58 89.852L236.184 89.5603C236.767 90.6853 237.548 91.1853 238.538 91.0603L251.913 89.2687C252.09 89.2426 252.215 89.2426 252.288 89.2687C252.371 89.2947 252.444 89.3781 252.517 89.5187C252.543 89.5864 252.564 89.6489 252.58 89.7062C252.59 89.7739 252.585 89.8364 252.559 89.8937C252.528 89.9458 252.502 89.9822 252.476 89.9978C252.46 90.0239 252.418 90.0708 252.351 90.1437L242.517 100.269C242.236 100.529 242.106 100.79 242.121 101.04C242.132 101.29 242.288 101.706 242.58 102.29L242.746 102.623L242.142 102.915C241.778 102.092 241.382 101.253 240.955 100.394C240.257 99.0291 239.778 98.1281 239.517 97.6853L240.121 97.3937C240.647 98.4458 241.101 98.8781 241.476 98.6853C241.502 98.6697 241.585 98.602 241.726 98.477L244.121 96.0187L241.746 91.3103L238.809 91.6645C238.752 91.6645 238.647 91.6958 238.496 91.7687C238.231 91.9041 238.064 92.1489 237.996 92.4978C237.939 92.8416 238.028 93.2478 238.267 93.7062L237.663 93.9978C237.09 92.7583 236.746 92.0187 236.621 91.7687C236.413 91.3624 236.064 90.727 235.58 89.852ZM242.434 91.2062L244.601 95.4978L249.705 90.227L242.434 91.2062Z" fill="black"/>
<path d="M244.114 108.115L244.739 107.886L244.927 108.427C245.187 109.162 245.411 109.599 245.593 109.74C245.77 109.875 246.057 109.875 246.447 109.74L257.052 105.948C257.427 105.813 257.64 105.63 257.697 105.406C257.765 105.188 257.666 104.708 257.406 103.969L257.218 103.427L257.843 103.198C257.968 103.688 258.312 104.719 258.885 106.302C259.437 107.87 259.822 108.875 260.031 109.323L259.406 109.552L259.218 109.052C258.953 108.287 258.724 107.833 258.531 107.698C258.349 107.573 258.072 107.578 257.697 107.719L247.093 111.511C246.718 111.646 246.494 111.823 246.427 112.031C246.369 112.25 246.474 112.745 246.739 113.511L246.927 114.011L246.302 114.24C246.177 113.75 245.828 112.724 245.26 111.156C244.703 109.583 244.322 108.573 244.114 108.115Z" fill="black"/>
<path d="M248.08 119.486L248.726 119.34C249.028 120.574 249.684 121.246 250.684 121.361L264.08 122.861C264.247 122.887 264.361 122.923 264.434 122.965C264.502 123.017 264.549 123.121 264.58 123.277C264.606 123.345 264.622 123.408 264.622 123.465C264.622 123.517 264.601 123.569 264.559 123.611C264.517 123.663 264.481 123.699 264.455 123.715C264.424 123.741 264.377 123.783 264.309 123.84L252.288 131.277C251.965 131.454 251.778 131.673 251.726 131.923C251.668 132.173 251.71 132.6 251.851 133.215L251.934 133.59L251.288 133.736C251.132 132.861 250.955 131.944 250.747 130.986C250.413 129.496 250.168 128.512 250.017 128.027L250.663 127.882C250.913 129.033 251.247 129.559 251.663 129.465C251.689 129.465 251.788 129.423 251.955 129.34L254.892 127.527L253.726 122.382L250.809 122.027C250.736 122.012 250.622 122.027 250.455 122.069C250.163 122.121 249.939 122.309 249.788 122.632C249.648 122.949 249.632 123.361 249.747 123.861L249.101 124.007C248.851 122.658 248.689 121.85 248.622 121.59C248.523 121.132 248.34 120.428 248.08 119.486ZM254.434 122.465L255.476 127.152L261.705 123.257L254.434 122.465Z" fill="black"/>
<path d="M38.7279 178.454L39.2279 178.246C39.7384 179.537 40.4675 180.381 41.4154 180.766C41.4832 180.959 41.504 181.079 41.4779 181.121C41.4623 181.173 41.3582 181.235 41.1654 181.308L32.1029 184.891C31.78 185.016 31.6029 185.167 31.5613 185.35C31.53 185.542 31.6498 185.985 31.9154 186.683L32.1238 187.204L31.6238 187.412C31.4988 187.006 31.1654 186.121 30.6238 184.746C30.0925 183.381 29.7384 182.522 29.5613 182.162L30.0613 181.954L30.2696 182.496C30.53 183.162 30.7384 183.558 30.8946 183.683C31.0613 183.808 31.3009 183.808 31.6238 183.683L39.9779 180.391C39.4779 179.949 39.0613 179.303 38.7279 178.454Z" fill="black"/>
<path d="M36.7237 191.768L37.2029 191.497L46.8695 192.393C47.0362 192.408 47.1508 192.471 47.2237 192.58C47.2758 192.705 47.2914 192.794 47.2654 192.851C47.2341 192.903 47.1299 192.976 46.9529 193.059L39.9945 196.768L40.807 198.288L40.3279 198.559L39.5154 197.038L38.182 197.726C37.8904 197.893 37.7289 198.059 37.7029 198.226C37.6872 198.393 37.8174 198.736 38.0987 199.268L38.2654 199.58L37.7862 199.83C37.5883 199.398 37.2341 198.705 36.7237 197.747C36.2081 196.788 35.8279 196.106 35.5779 195.705L36.057 195.455L36.2237 195.768C36.4997 196.294 36.7133 196.59 36.8695 196.663C37.0362 196.747 37.2654 196.705 37.557 196.538L38.8904 195.851L36.7237 191.768ZM37.432 191.934L39.4112 195.663L45.1195 192.643L37.432 191.934Z" fill="black"/>
<path d="M41.5245 205.287C41.5922 205.037 41.7224 204.839 41.9204 204.704C42.1287 204.579 42.3474 204.537 42.587 204.579C42.837 204.631 43.035 204.772 43.1912 204.996C43.3266 205.204 43.3683 205.423 43.3162 205.662C43.2745 205.897 43.1391 206.084 42.9204 206.225C42.6964 206.376 42.462 206.423 42.212 206.371C41.9724 206.313 41.7954 206.188 41.6704 205.996C41.5141 205.772 41.4672 205.537 41.5245 205.287Z" fill="black"/>
<path d="M50.2304 208.587C51.5324 207.519 52.6783 206.852 53.6679 206.587C55.1106 206.186 56.2772 206.535 57.1679 207.628C57.3606 207.878 57.522 208.149 57.647 208.441C57.7824 208.733 57.8606 209.128 57.8762 209.628C57.8866 210.128 57.772 210.628 57.522 211.128C57.0481 212.113 56.147 213.149 54.8137 214.233C53.5064 215.3 52.3606 215.962 51.3762 216.212C49.9283 216.556 48.772 216.196 47.897 215.128C47.5741 214.722 47.3554 214.233 47.2304 213.649C47.1054 213.076 47.1783 212.462 47.4595 211.795C47.8762 210.826 48.7981 209.753 50.2304 208.587ZM51.272 209.566C49.9231 210.665 49.022 211.477 48.5637 212.003C48.0637 212.587 47.8033 213.128 47.7929 213.628C47.7929 214.139 47.9231 214.566 48.1887 214.899C48.4908 215.259 48.9022 215.472 49.4179 215.545C49.9283 215.628 50.5116 215.483 51.1679 215.108C51.8189 214.743 52.7824 214.045 54.0637 213.003C55.3137 211.988 56.1522 211.243 56.5845 210.753C57.0689 210.16 57.2981 209.602 57.272 209.087C57.2564 208.576 57.1158 208.165 56.8554 207.858C56.772 207.733 56.6574 207.628 56.522 207.545C56.3814 207.451 56.1887 207.352 55.9387 207.253C55.6991 207.16 55.397 207.144 55.022 207.212C54.6574 207.285 54.2616 207.436 53.8345 207.67C53.2929 207.993 52.4387 208.623 51.272 209.566Z" fill="black"/>
<path d="M59.7686 216.557C60.1956 216.114 60.6227 215.807 61.0394 215.641C61.4665 215.474 61.9613 215.37 62.5186 215.328C63.529 215.302 64.3936 215.635 65.1019 216.328C65.404 216.635 65.6279 216.989 65.7686 217.391C65.9196 217.781 65.9821 218.255 65.9561 218.807C65.9248 219.349 65.7061 219.989 65.2894 220.724C64.8832 221.448 64.2998 222.193 63.5394 222.974C62.2738 224.25 60.9404 224.995 59.5394 225.203C58.1332 225.411 57.0082 225.104 56.1644 224.286C55.6332 223.771 55.3363 223.245 55.2686 222.703C55.1956 222.161 55.3623 221.682 55.7686 221.266C55.9769 221.057 56.1852 220.969 56.3936 220.995C56.6019 221.026 56.7738 221.109 56.9144 221.245C57.0654 221.385 57.1488 221.557 57.1644 221.766C57.1748 221.974 57.0915 222.167 56.9144 222.349C56.7738 222.5 56.6019 222.583 56.3936 222.599C56.1852 222.625 55.9613 222.521 55.7269 222.286C55.6696 222.812 55.9248 223.359 56.4977 223.932C56.6904 224.125 56.9404 224.276 57.2477 224.391C57.5498 224.5 57.9352 224.547 58.3936 224.536C58.8519 224.521 59.3832 224.333 59.9977 223.974C60.6071 223.625 61.2529 223.109 61.9352 222.432L62.3102 222.036C61.154 222.536 60.2321 222.443 59.5394 221.766C58.8415 221.088 58.5186 220.245 58.5602 219.245C58.6019 218.234 59.0029 217.338 59.7686 216.557ZM60.8727 217.682C60.0811 218.489 59.6019 219.114 59.4352 219.557C59.1852 220.323 59.3154 220.953 59.8311 221.453C60.3415 221.953 60.9404 222.104 61.6227 221.911C62.3154 221.713 62.9456 221.328 63.5186 220.745C64.3102 219.927 64.8154 219.276 65.0394 218.786C65.4248 217.901 65.3415 217.193 64.7894 216.661C64.2477 216.12 63.5863 215.969 62.8102 216.203C62.3363 216.359 61.6904 216.849 60.8727 217.682Z" fill="black"/>
<path d="M64.8908 231.259C64.8751 231.009 64.9429 230.785 65.0991 230.592C65.2501 230.41 65.4533 230.311 65.7033 230.279C65.9533 230.238 66.172 230.3 66.3699 230.467C66.5626 230.634 66.672 230.832 66.7033 231.071C66.7449 231.305 66.6824 231.529 66.5158 231.738C66.3491 231.946 66.1408 232.055 65.8908 232.071C65.6408 232.097 65.4168 232.035 65.2241 231.884C65.0262 231.717 64.9168 231.509 64.8908 231.259Z" fill="black"/>
<path d="M71.2585 236.51C71.3679 236.328 71.4513 236.218 71.5085 236.177C71.5606 236.135 71.6596 236.099 71.8002 236.073L76.5919 234.802C78.3679 234.343 79.5815 233.614 80.2377 232.614C80.6648 231.963 80.8627 231.297 80.821 230.614C80.7898 229.937 80.4669 229.385 79.8419 228.968C79.4252 228.708 78.946 228.588 78.4044 228.614C77.8731 228.63 77.3835 228.812 76.9252 229.156C76.9356 229.172 76.9981 229.213 77.1127 229.281C77.3627 229.437 77.4981 229.635 77.5294 229.885C77.571 230.125 77.5294 230.338 77.4044 230.531C77.2377 230.797 77.019 230.937 76.7585 230.948C76.4929 230.963 76.2846 230.916 76.1335 230.802C76.0606 230.76 75.9877 230.708 75.9044 230.635C75.8315 230.552 75.769 230.401 75.7169 230.177C75.6752 229.958 75.7273 229.734 75.8835 229.51C76.3263 228.817 76.9877 228.375 77.8627 228.177C78.7377 227.984 79.5554 228.135 80.321 228.635C81.2065 229.218 81.769 229.968 82.0085 230.885C82.2429 231.802 82.0919 232.672 81.5502 233.489C81.3679 233.781 81.144 234.031 80.8835 234.239C80.6335 234.437 80.3731 234.604 80.1127 234.739C79.8627 234.864 79.4721 234.984 78.946 235.093C78.4304 235.208 77.9721 235.297 77.571 235.364C77.1648 235.437 76.5294 235.531 75.6544 235.656L73.1335 236.135L75.7377 237.864C76.5815 238.416 77.0606 238.677 77.1752 238.635C77.3523 238.562 77.7481 238.203 78.3627 237.552L78.7169 237.802L76.6335 240.052L71.2585 236.51Z" fill="black"/>
<path d="M84.6816 238.377C85.442 236.866 86.2285 235.783 87.0358 235.127C88.1868 234.184 89.3951 234.033 90.6608 234.668C90.9212 234.809 91.1712 234.991 91.4108 235.21C91.6608 235.418 91.8899 235.752 92.0983 236.21C92.317 236.658 92.416 237.163 92.3899 237.731C92.3743 238.814 91.9785 240.127 91.2024 241.668C90.4524 243.168 89.666 244.231 88.8483 244.856C87.692 245.773 86.4993 245.918 85.2649 245.293C84.8066 245.054 84.3951 244.7 84.0358 244.231C83.6868 243.757 83.5045 243.158 83.4941 242.439C83.4628 241.356 83.8587 240.002 84.6816 238.377ZM86.0774 238.835C85.2858 240.377 84.791 241.491 84.5983 242.168C84.3743 242.908 84.3587 243.502 84.5566 243.96C84.7493 244.429 85.041 244.762 85.4316 244.96C85.8483 245.168 86.3066 245.2 86.8066 245.064C87.3066 244.924 87.7753 244.549 88.2233 243.939C88.666 243.34 89.2649 242.309 90.0149 240.835C90.7337 239.392 91.192 238.356 91.3899 237.731C91.5826 236.996 91.5618 236.408 91.3274 235.96C91.1035 235.502 90.817 235.184 90.4733 235.002C90.3326 234.934 90.1816 234.887 90.0149 234.856C89.8483 234.814 89.6295 234.804 89.3691 234.814C89.1191 234.814 88.8378 234.929 88.5358 235.148C88.2285 235.356 87.9212 235.658 87.6191 236.043C87.2701 236.559 86.7545 237.491 86.0774 238.835Z" fill="black"/>
<path d="M94.1154 248.969C94.1831 248.771 94.2404 248.657 94.2821 248.615C94.3238 248.563 94.4123 248.506 94.5529 248.448L98.9488 246.115C100.558 245.271 101.574 244.292 101.99 243.178C102.251 242.443 102.293 241.75 102.115 241.094C101.933 240.443 101.49 239.985 100.782 239.719C100.324 239.542 99.829 239.526 99.3029 239.678C98.7873 239.818 98.3498 240.11 97.9904 240.553C98.0165 240.553 98.0946 240.584 98.2196 240.636C98.48 240.735 98.6571 240.896 98.7404 241.115C98.8342 241.339 98.8446 241.563 98.7613 241.782C98.6467 242.073 98.4696 242.256 98.2196 242.323C97.98 242.396 97.7717 242.396 97.5946 242.323C97.5113 242.297 97.4175 242.261 97.3238 242.219C97.2404 242.167 97.1415 242.032 97.0321 241.823C96.9331 241.605 96.9331 241.36 97.0321 241.094C97.3238 240.334 97.8706 239.761 98.6779 239.386C99.48 239 100.324 238.969 101.199 239.303C102.183 239.667 102.897 240.261 103.345 241.094C103.787 241.917 103.834 242.792 103.49 243.719C103.365 244.042 103.199 244.334 102.99 244.594C102.782 244.844 102.563 245.063 102.345 245.24C102.136 245.422 101.787 245.631 101.303 245.865C100.813 246.105 100.386 246.297 100.011 246.448C99.6363 246.605 99.0321 246.839 98.1988 247.157L95.8446 248.198L98.7821 249.282C99.7248 249.641 100.251 249.782 100.365 249.698C100.532 249.599 100.829 249.167 101.261 248.407L101.678 248.553L100.157 251.219L94.1154 248.969Z" fill="black"/>
<path d="M106.784 250.34L106.909 249.819L114.054 243.194C114.164 243.069 114.284 243.027 114.409 243.069C114.544 243.1 114.622 243.142 114.638 243.194C114.648 243.251 114.638 243.376 114.596 243.569L112.7 251.235L114.388 251.652L114.263 252.173L112.575 251.756L112.221 253.215C112.138 253.532 112.143 253.761 112.242 253.902C112.351 254.037 112.7 254.178 113.284 254.319L113.638 254.402L113.513 254.923C113.054 254.782 112.289 254.579 111.221 254.319C110.164 254.053 109.409 253.881 108.95 253.798L109.075 253.277L109.429 253.36C109.997 253.511 110.367 253.553 110.534 253.485C110.711 253.412 110.846 253.22 110.929 252.902L111.284 251.444L106.784 250.34ZM107.409 249.923L111.492 250.944L113.034 244.673L107.409 249.923Z" fill="black"/>
</svg>
